<svg xmlns="http://www.w3.org/2000/svg" viewBox="0 0 100 120">
    <path d="M15,12 L85,12 L85,65 C85,95 50,115 50,115 C50,115 15,95 15,65 Z" fill="#5B92E5" stroke="#F1BF00" stroke-width="4"/>
    <rect x="15" y="30" width="70" height="7" fill="#FFFFFF"/>
    <rect x="15" y="44" width="70" height="7" fill="#FFFFFF"/>
    <rect x="15" y="58" width="70" height="7" fill="#FFFFFF"/>
    <rect x="15" y="72" width="60" height="7" fill="#FFFFFF"/>
    <text x="50" y="100" font-size="11" font-weight="bold" fill="#FFFFFF" text-anchor="middle" font-family="sans-serif">AUF</text>
    <polygon points="25,2 28,6 32,6 29,9 30,13 25,10 20,13 21,9 18,6 22,6" fill="#F1BF00"/>
    <polygon points="42,2 45,6 49,6 46,9 47,13 42,10 37,13 38,9 35,6 39,6" fill="#F1BF00"/>
    <polygon points="58,2 61,6 65,6 62,9 63,13 58,10 53,13 54,9 51,6 55,6" fill="#F1BF00"/>
    <polygon points="75,2 78,6 82,6 79,9 80,13 75,10 70,13 71,9 68,6 72,6" fill="#F1BF00"/>
  </svg>